<svg id="Layer_1" data-name="Layer 1" xmlns="http://www.w3.org/2000/svg" viewBox="0 0 136 136"><defs><style>.cls-1{fill:#00056b;}.cls-2{fill:none;stroke:#000;stroke-miterlimit:10;}.cls-3{fill:#f6ffc3;}.cls-4{fill:#f3ffbe;}</style></defs><title>Astrophotography</title><path class="cls-1" d="M960,473a67,67,0,1,1-67,67A67,67,0,0,1,960,473Z" transform="translate(-892 -472)"/><path class="cls-2" d="M960,607a67,67,0,1,1,67-67A67,67,0,0,1,960,607Z" transform="translate(-892 -472)"/><path d="M960,474a66,66,0,1,1-66,66,66,66,0,0,1,66-66m0-2a68,68,0,1,0,68,68A68,68,0,0,0,960,472Z" transform="translate(-892 -472)"/><path class="cls-2" d="M980,519" transform="translate(-892 -472)"/><path class="cls-2" d="M937,519" transform="translate(-892 -472)"/><polygon class="cls-3" points="72.88 25 72.96 22.74 71.14 21.38 73.32 20.76 74.05 18.62 75.31 20.5 77.58 20.53 76.18 22.31 76.85 24.47 74.72 23.69 72.88 25"/><polygon class="cls-3" points="98.25 52.75 99.54 47.48 95.93 43.44 101.34 43.04 104.07 38.36 106.13 43.38 111.42 44.53 107.28 48.03 107.82 53.42 103.21 50.57 98.25 52.75"/><polygon class="cls-3" points="32.88 109.63 33.52 106.99 31.72 104.97 34.42 104.77 35.79 102.43 36.81 104.94 39.46 105.52 37.39 107.27 37.66 109.96 35.36 108.54 32.88 109.63"/><polygon class="cls-4" points="101.63 24.13 101.96 23.5 101.64 22.86 102.34 22.99 102.84 22.48 102.94 23.19 103.58 23.51 102.93 23.82 102.82 24.52 102.33 24.01 101.63 24.13"/><polygon class="cls-3" points="107.63 89.75 109.87 85.49 107.64 81.23 112.39 82.05 115.75 78.61 116.44 83.38 120.75 85.52 116.43 87.64 115.73 92.4 112.37 88.95 107.63 89.75"/><polygon class="cls-3" points="60 93.38 65.71 87.69 64.26 79.76 71.43 83.43 78.53 79.61 77.25 87.56 83.08 93.13 75.12 94.37 71.63 101.64 67.99 94.45 60 93.38"/><polygon class="cls-3" points="86.56 122.46 87.01 121.13 86.17 120 87.57 120.02 88.39 118.87 88.81 120.21 90.15 120.63 89 121.44 89.02 122.85 87.89 122.01 86.56 122.46"/><circle class="cls-4" cx="40" cy="53" r="21.5"/><circle class="cls-1" cx="51.5" cy="54.5" r="18.5"/></svg>