<svg id="Layer_1" data-name="Layer 1" xmlns="http://www.w3.org/2000/svg" viewBox="0 0 136 136"><defs><style>.cls-1{fill:#fbb03b;}.cls-2{fill:none;stroke:#000;stroke-miterlimit:10;}.cls-3{fill:#fff;}</style></defs><title>Camera</title><path class="cls-1" d="M346,300a67,67,0,1,1,67-67A67.08,67.08,0,0,1,346,300Z" transform="translate(-278 -165)"/><path d="M346,167a66,66,0,1,1-66,66,66.07,66.07,0,0,1,66-66m0-2a68,68,0,1,0,68,68,68,68,0,0,0-68-68Z" transform="translate(-278 -165)"/><rect x="33" y="47" width="67" height="43" rx="12" ry="12"/><rect class="cls-2" x="33" y="47" width="67" height="43" rx="12" ry="12"/><path d="M344,218.5a6.51,6.51,0,0,1-6.5-6.5c0-1.27,4.53-6.5,6.5-6.5h11c2.39,0,6.45,5.56,6.5,6.5a6.51,6.51,0,0,1-6.5,6.5Z" transform="translate(-278 -165)"/><path d="M355,206c2,0,5.73,5,6,6a6,6,0,0,1-6,6H344a6,6,0,0,1-6-6c.08-1.18,4.3-6,6-6h11m0-1H344c-2.23,0-7,5.38-7,7a7,7,0,0,0,7,7h11a7,7,0,0,0,7-7c0-1.07-4.22-7-7-7Z" transform="translate(-278 -165)"/><path d="M344.5,246A12.5,12.5,0,1,1,357,233.5,12.51,12.51,0,0,1,344.5,246Z" transform="translate(-278 -165)"/><path class="cls-3" d="M344.5,222A11.5,11.5,0,1,1,333,233.5,11.51,11.51,0,0,1,344.5,222m0-2A13.5,13.5,0,1,0,358,233.5,13.5,13.5,0,0,0,344.5,220Z" transform="translate(-278 -165)"/><rect x="46.5" y="45.5" width="4" height="1"/><polygon points="51 45 46 45 46 47 51 47 51 45 51 45"/><path class="cls-3" d="M336.88,227.5a1.5,1.5,0,0,0,0-3,1.5,1.5,0,0,0,0,3Z" transform="translate(-278 -165)"/><path class="cls-3" d="M344.5,243.5a9.68,9.68,0,0,0,6.6-2,9.57,9.57,0,0,0,3.4-6,8.25,8.25,0,0,1-3.09,6.39,8.08,8.08,0,0,1-3.3,1.58A8.34,8.34,0,0,1,344.5,243.5Z" transform="translate(-278 -165)"/></svg>