<?xml version="1.0" encoding="utf-8"?>
<!-- Generator: Adobe Illustrator 21.0.0, SVG Export Plug-In . SVG Version: 6.00 Build 0)  -->
<svg version="1.1" id="Layer_1" xmlns="http://www.w3.org/2000/svg" xmlns:xlink="http://www.w3.org/1999/xlink" x="0px" y="0px"
	 viewBox="0 0 462 87" style="enable-background:new 0 0 462 87;" xml:space="preserve">
<style type="text/css">
	.st0{fill:none;stroke:#000000;stroke-width:2;stroke-miterlimit:10;}
</style>
<g>
	<path class="st0" d="M36.9,68.1c0,1.1-0.4,2.1-1.1,2.8C35,71.6,34.1,72,32.9,72H18.8c-1.1,0-2.1-0.4-2.8-1.1
		c-0.7-0.7-1.1-1.7-1.1-2.8V20.9c0-1.1,0.4-2.1,1.1-2.8c0.7-0.7,1.7-1.1,2.8-1.1h14.2c1.1,0,2.1,0.4,2.8,1.1
		c0.8,0.7,1.1,1.7,1.1,2.8v12.8H32V21.3H19.8v46.4H32V54.1h4.9V68.1z"/>
	<path class="st0" d="M68.5,72h-4.9V45.6H50.3V72h-4.9V17h4.9v24.2h13.3V17h4.9V72z"/>
	<path class="st0" d="M100.5,68.1c0,1.1-0.4,2.1-1.1,2.8S97.7,72,96.6,72H81.2c-1.1,0-2.1-0.4-2.8-1.1c-0.7-0.7-1.1-1.7-1.1-2.8
		V20.9c0-1.1,0.4-2.1,1.1-2.8c0.7-0.7,1.7-1.1,2.8-1.1h15.4c1.1,0,2.1,0.4,2.8,1.1c0.7,0.7,1.1,1.7,1.1,2.8V68.1z M95.6,67.7V21.3
		H82.2v46.4H95.6z"/>
	<path class="st0" d="M130.7,68.1c0,1.1-0.4,2.1-1.1,2.8c-0.7,0.7-1.6,1.1-2.8,1.1H113c-1.1,0-2.1-0.4-2.8-1.1s-1.1-1.7-1.1-2.8v-14
		h4.9v13.5h11.9V54.6l-15.2-18.4c-1.1-1.3-1.6-2.7-1.6-4.2V20.9c0-1.1,0.4-2.1,1.1-2.8c0.7-0.7,1.7-1.1,2.8-1.1h13.9
		c1.1,0,2.1,0.4,2.8,1.1c0.7,0.7,1.1,1.7,1.1,2.8v12.8h-4.9V21.3H114v11.6l15.3,18.4c1,1.2,1.5,2.6,1.5,4.1V68.1z"/>
	<path class="st0" d="M157.5,72h-18.1V17h17.9v4.3h-13v20.5h11.8v4.4h-11.8v21.4h13.2V72z"/>
	<path class="st0" d="M201.4,72h-4.9l-1.9-12.2h-10.9L181.7,72H177v-0.1l9.8-55h4.8L201.4,72z M193.9,55.4l-4.8-29.8l-4.9,29.8
		H193.9z"/>
	<path class="st0" d="M244.1,68.1c0,1.1-0.4,2.1-1.1,2.8c-0.8,0.7-1.7,1.1-2.8,1.1H226c-1.1,0-2.1-0.4-2.8-1.1
		c-0.7-0.7-1.1-1.7-1.1-2.8V20.9c0-1.1,0.4-2.1,1.1-2.8c0.7-0.7,1.7-1.1,2.8-1.1h14.2c1.1,0,2.1,0.4,2.8,1.1
		c0.8,0.7,1.1,1.7,1.1,2.8v12.8h-4.9V21.3H227v46.4h12.2V54.1h4.9V68.1z"/>
	<path class="st0" d="M274.8,72H270l-1.9-12.2h-10.9L255.2,72h-4.7v-0.1l9.8-55h4.8L274.8,72z M267.4,55.4l-4.8-29.8l-4.9,29.8
		H267.4z"/>
	<path class="st0" d="M300.4,21.3h-8.5V72H287V21.3h-8.6V17h22V21.3z"/>
	<path class="st0" d="M324.2,72h-18.1V17H324v4.3h-13v20.5h11.8v4.4H311v21.4h13.2V72z"/>
	<path class="st0" d="M354.1,68.1c0,1.1-0.4,2.1-1.1,2.8s-1.7,1.1-2.8,1.1h-14.4c-1.1,0-2.1-0.4-2.8-1.1s-1.1-1.7-1.1-2.8V20.9
		c0-1.1,0.4-2.1,1.1-2.8c0.7-0.7,1.7-1.1,2.8-1.1h14.4c1.1,0,2.1,0.4,2.8,1.1c0.7,0.7,1.1,1.7,1.1,2.8v12.8h-4.9V21.3h-12.4v46.4
		h12.4v-19h-5.9v-4.2h10.8V68.1z"/>
	<path class="st0" d="M386,68.1c0,1.1-0.4,2.1-1.1,2.8s-1.7,1.1-2.8,1.1h-15.4c-1.1,0-2.1-0.4-2.8-1.1s-1.1-1.7-1.1-2.8V20.9
		c0-1.1,0.4-2.1,1.1-2.8c0.7-0.7,1.7-1.1,2.8-1.1h15.4c1.1,0,2.1,0.4,2.8,1.1c0.7,0.7,1.1,1.7,1.1,2.8V68.1z M381.2,67.7V21.3h-13.5
		v46.4H381.2z"/>
	<path class="st0" d="M418.2,72h-5.1l-10.2-29.5l0.7-1h8.7V21.3h-12.6V72h-4.9V17h18.4c1.1,0,2.1,0.4,2.8,1.1
		c0.7,0.7,1.1,1.7,1.1,2.8v20.9c0,2.6-1.8,4-5.3,4c-0.4,0-0.9,0-1.5-0.1s-1.2-0.1-1.5-0.1C412,54.4,415.1,63.2,418.2,72z"/>
	<path class="st0" d="M447.7,17.3L441,39.6c-0.8,2.2-2,5.9-3.3,11.1V72h-4.9V50.7c-0.3-1.8-0.8-3.7-1.5-5.6
		c-1.1-3.4-1.7-5.2-1.8-5.5l-6.7-22.3c0,0,0-0.1,0-0.3h5l7.6,27.5l7.5-27.5h4.9C447.7,17.2,447.7,17.3,447.7,17.3z"/>
</g>
</svg>
