<svg xmlns="http://www.w3.org/2000/svg" viewBox="0 0 136 136"><defs><style>.cls-1{fill:#e97f00;}.cls-2{fill:none;stroke:#000;stroke-miterlimit:10;}</style></defs><title>Elephant</title><g id="Layer_1" data-name="Layer 1"><path class="cls-1" d="M960,607a67,67,0,1,1,67-67A67,67,0,0,1,960,607Z" transform="translate(-892 -472)"/><path d="M960,474a66,66,0,1,1-66,66,66,66,0,0,1,66-66m0-2a68,68,0,1,0,68,68A68,68,0,0,0,960,472Z" transform="translate(-892 -472)"/><path class="cls-2" d="M980,519" transform="translate(-892 -472)"/><path class="cls-2" d="M937,519" transform="translate(-892 -472)"/></g><g id="Layer_3" data-name="Layer 3"><path d="M921.65,498.17s2.15-1,4.29,2.1,2.15,4.2,2.15,4.2,1.07,6.3,1.07,7.35-1.07,3.15,0,6.3,3.22,3.15,4.29,3.15a11,11,0,0,0,3.22-1s4.29,0,6.44-2.1a59.47,59.47,0,0,1,6.44,1l3.22,1s8.58,1,8.58,3.15c0,0,4,1.94,4.27,4.89a3.48,3.48,0,0,1,0,.36c0,3.15,10.73,0,11.8,0a16.52,16.52,0,0,1,11.8,3.15,28.58,28.58,0,0,1,7.51,8.4l2.15,4.2V560.1a10.42,10.42,0,0,1,1.07,3.15v3.15l-1.07,1-1.07-1v-6.3a10.68,10.68,0,0,0-1.07-4.2,9.44,9.44,0,0,1,.38,4.08,4.21,4.21,0,0,1-.38,1.17c-1.07,2.1,4.29,15.75,3.22,16.8a5.38,5.38,0,0,1-3.22,1h-5.37a1,1,0,0,1-1.07-1h0v-1l1.07-2.1v-2.1l-1.07-5.25-1.07-3.15h0l-.42-.41-.66-.64,1.07,1-.54,1-.54,1v7.35a10.42,10.42,0,0,1,1.07,3.15v1l-1.07,1h-7.51l-1.07-1,2.15-3.15-1.07-9.45v-4.2l-1.07-1h0l-1.07-1h-3.22c-1.07,0-6.44-2.1-6.44-2.1l-1.07,2.1-1.07,2.1v7.35l1.07,4.2V578s0,1-2.15,1h-6.44a1,1,0,0,1-1.07-1v-2.1l1.07-1v-3.15l-1.07-6.3-1.07-4.2-2.15,7.35v7.35a1.43,1.43,0,0,1,0,2.1,5.38,5.38,0,0,1-3.22,1h-5.37l-1.07-1,1.07-2.1,1.07-1h1.07l-1.07-2.1V562.2s-1.05-3.09,1-9.27l.06-.18c2.15-6.3-3.22-8.4-5.37-12.6s-4.29-1-7.51-3.15c0,0-4.29-1-4.29-2.1s-3.22-1-3.22-1l2.15-2.1,1.07-1s-6.44,1-8.58,0c0,0-5.37-2.1-3.22-2.1s2.15,1,5.37,1c0,0,3.22,0,4.29-1a4.7,4.7,0,0,1-4.29-3.15,12.51,12.51,0,0,1-1.07-5.25s0-6.3,1.07-7.35a10.86,10.86,0,0,0,0-6.3,5.1,5.1,0,0,0-1.07-3.15s-1.07-2.1-2.15-2.1h-1.07l1.07-1v-1h-1.07a1,1,0,0,1,1.07-1" transform="translate(-892 -472)"/></g></svg>