<svg xmlns="http://www.w3.org/2000/svg" viewBox="0 0 138 138"><defs><style>.cls-1{fill:#00c9ff;}.cls-2{fill:none;stroke:#000;stroke-miterlimit:10;stroke-width:2px;}.cls-3{fill:red;}.cls-4{fill:#006837;}.cls-5{fill:#ff0;}.cls-6{fill:blue;}</style></defs><title>Games</title><g id="Layer_1" data-name="Layer 1"><g id="_Group_" data-name="&lt;Group&gt;"><circle class="cls-1" cx="69" cy="69" r="68"/><circle class="cls-2" cx="69" cy="69" r="68"/></g></g><g id="Layer_2" data-name="Layer 2"><path d="M382.52,240.33a18.44,18.44,0,0,1-5,14.18c-2.58,2.68-5.52,3.3-8.7,1.39a45.18,45.18,0,0,1-7-5.71c-3.07-2.83-6-5.85-10-7.3-9.1-3.3-17.63-2.42-25.2,4-2.57,2.16-4.9,4.6-7.39,6.86a14.49,14.49,0,0,1-2.71,2c-3.89,2.14-7.32,1.51-10.09-1.92a18.57,18.57,0,0,1-4.29-12.9c.48-10.09,3.52-19.25,10.11-27a27.28,27.28,0,0,1,3.8-3.65c5.23-4.18,10.24-4,15.31.32,1,.87,2,1.77,3,2.64,5.25,4.52,10.73,4.52,16,0,1.54-1.32,3-2.7,4.67-3.89a9.91,9.91,0,0,1,11.94-.31c5.41,3.46,8.85,8.56,11.49,14.25A45.4,45.4,0,0,1,382.52,240.33Zm-62.36-2.17h6.46V232c1.78,0,3.42,0,5.06,0,.41,0,1.13-.42,1.15-.67.1-1.84.05-3.68.05-5.74h-6.33V219.4H320.1v6.29h-6.28c0,1.59.1,3,0,4.34s.34,2.12,1.92,2,2.92,0,4.45,0v6.18Z" transform="translate(-273.5 -155.5)"/><path class="cls-3" d="M354.9,224.76a4,4,0,1,1,0,8.05,4,4,0,0,1,0-8.05Z" transform="translate(-273.5 -155.5)"/><path class="cls-4" d="M367.47,224.76a4,4,0,0,1,.11,8.05,4,4,0,1,1-.11-8.05Z" transform="translate(-273.5 -155.5)"/><g id="_Group_2" data-name="&lt;Group&gt;"><path class="cls-5" d="M365.25,222.45a4.08,4.08,0,0,1-4.08,4,4,4,0,0,1-3.94-4,4.12,4.12,0,0,1,4-4.07A4.24,4.24,0,0,1,365.25,222.45Z" transform="translate(-273.5 -155.5)"/></g><g id="_Group_3" data-name="&lt;Group&gt;"><path class="cls-6" d="M361.19,231.11a4.11,4.11,0,0,1,4.07,4,4.28,4.28,0,0,1-4,4,4.15,4.15,0,0,1-4-4.1A4,4,0,0,1,361.19,231.11Z" transform="translate(-273.5 -155.5)"/></g><path d="M339.28,206.32c.91-6.64,4.51-10.8,10.29-13.29,4.27-1.83,8.82-1.8,13.33-2.2a19.23,19.23,0,0,0,5.54-1.33c3.1-1.27,4.74-3.85,5.29-7.11.46-2.76,1.74-4.22,3.64-4s3,2.13,2.5,4.89c-1.21,7.37-6.58,12.48-14.39,13.51-2.9.38-5.85.36-8.75.73a20.28,20.28,0,0,0-5.07,1.35,9.43,9.43,0,0,0-6.2,7.88,3,3,0,0,1-2.41,2.84,2.75,2.75,0,0,1-3.17-1.3A7.86,7.86,0,0,1,339.28,206.32Z" transform="translate(-273.5 -155.5)"/></g></svg>