<?xml version="1.0" encoding="utf-8"?>
<!-- Generator: Adobe Illustrator 21.0.0, SVG Export Plug-In . SVG Version: 6.00 Build 0)  -->
<svg version="1.1" id="Layer_1" xmlns="http://www.w3.org/2000/svg" xmlns:xlink="http://www.w3.org/1999/xlink" x="0px" y="0px"
	 viewBox="0 0 136 136" style="enable-background:new 0 0 136 136;" xml:space="preserve">
<style type="text/css">
	.st0{fill:#39B54A;}
	.st1{fill:none;stroke:#000000;stroke-miterlimit:10;}
	.st2{stroke:#000000;stroke-miterlimit:10;}
</style>
<title>Landscape</title>
<g id="Layer_1_1_">
	<path class="st0" d="M68,1c37,0,67,30,67,67s-30,67-67,67S1,105,1,68S31,1,68,1L68,1z"/>
	<path class="st1" d="M68,135c-37,0-67-30-67-67S31,1,68,1s67,30,67,67l0,0C135,105,105,135,68,135z"/>
	<path d="M68,2c36.5,0,66,29.5,66,66s-29.5,66-66,66S2,104.5,2,68S31.5,2,68,2 M68,0C30.4,0,0,30.4,0,68s30.4,68,68,68
		s68-30.4,68-68l0,0C136,30.4,105.6,0,68,0z"/>
	<path class="st1" d="M88,47"/>
	<path class="st1" d="M45,47"/>
</g>
<g id="Layer_4">
	<path id="_Path_" class="st2" d="M2.5,73.6c0.9-0.5,2.1,0.7,6,0.3c1.5-0.2,3-0.3,4.5-0.3c1.1,0,1.3,0.1,2,0.1c2.7,0,6.9-1,9.2-3.6
		c0.6-0.7,1.3-1.3,2-1.9c0.9-0.7,1.4-1,2-0.9s0.9,0.8,2,1.1c0.3,0,0.7,0,1,0c1.1,0.1,2.1-0.2,3-0.9c0.5-0.5,0.6-0.9,1-1s0.8,0.2,1,0
		s-0.2-0.8,0-1s0.5,0.1,1,0c1.1-0.1,1.4-2,2.1-1.9c0.5,0,0.6,1.1,1,1s0.3-1,1.1-2c0.5-0.5,0.6-0.4,1-1c0.8-1,0.8-1.9,1.1-2
		s0.5,1,1,1c0.2,0,0.3-0.1,1-1c0.6-0.7,0.8-0.9,1-1c0.3-0.1,0.7-0.1,1,0c0.5,0.3,0.4,0.8,1,1c0.3,0.1,0.7,0.1,1,0
		c0.7-0.3,0.8-1.1,1.1-2c0.1-0.4,1.2-3,3.2-3.9c0.9-0.4,1.8-0.3,2-0.9c0.1-0.4-0.2-0.8,0-1s0.5,0.2,1,0s0.5-0.8,1-1s0.6,0.2,1,0
		s0.5-0.8,1-1c0.3,0,0.7,0,1,0c0.3,0,0.7,0,1,0c0.3-0.1,0.5-0.3,1-1s0.8-0.9,1-1c0.8-0.2,1.7,0.3,2,1.1c0.1,0.5-0.2,0.8,0,1
		s1.6-0.1,2,0.1h0.1c0.2,0.1,0.3,0.3,0.4,0.4c0.1,0.2,0.3,0.4,0.5,0.6c0.3,0.3,0.4,0.4,1,1c0.9,1,0.8,0.9,1,1c0.7,0.7,0.9,0.7,1,1
		s-0.2,0.8,0,1s0.7,0.2,1,0c0.6-0.3,0.5-0.8,1-1c0.3-0.1,0.3,0,1,0c1.3,0.1,1.5-0.2,2,0.1c0.4,0.3,0.7,0.6,1,1c0.5,0.6,0.6,0.9,1,1
		s0.6,0,1,0c1,0,1.4,1.3,2.9,3.1c1.1,1.4,1.2,1,1.9,2.1s0.9,1.7,1.9,3.1c0.3,0.4,0.6,0.7,1,1c1,0.5,1.6-0.2,3,0.1
		c0.7,0.3,1.4,0.6,2,1.1c1.3,0.8,1.4,1.1,2,1.1c0.7,0,0.8-0.4,2-0.9c1.6-0.6,2.2-0.1,3-0.9c0.5-0.5,0.7-1,1-1s0.5,0.7,1,1
		c0.9,0.9,2.6,0.1,6-0.7c1.1-0.2,2.4-0.4,5-0.8c1-0.3,2-0.2,3,0.1c0.9,0.4,1,0.9,2,1.1s1.4-0.3,2,0.1s0.6,1,1,1s0.4-0.7,1-1
		c0.2-0.1,0.2,0,2,0.1c0.3,0,0.6,0,0.9,0c0.3,0,0.5,0,0.8,0c0.1,0,0.2,0,0.4,0.1c0.7,0.2,1.4,0.6,2,1.1c1.1,1,2.2,1.9,3.4,2.7
		c2,1.3,3,0.2,4,1.2s0.6,2.6-0.3,7c-1.2,6.2-0.9,5.5-1.3,7c-1.4,5.4-5.2,13.9-12,22.5c-3.9,5.1-8.5,9.6-13.6,13.4
		c-7.9,5.8-17,9.9-26.6,11.8c-23.9,4.3-48.3-4.4-64-22.9C3.3,95.3-0.6,75.5,2.5,73.6z"/>
	<path d="M31.8,120.7c2.6,2.5,5.1,5.1,7.5,7.8c1,1.2,2.9-0.1,2.5-1.5c-1.1-4-7.1-5.7-10.6-6.9c-1.8-0.7-2.6,2.2-0.8,2.9
		c2.7,1,4.6,3.6,7.2,4.8c2.5,1.2,5.1,2,7.8,2.4c1.9,0.3,2.7-2.5,0.8-2.9c-3.1-0.4-6.1-1.4-8.8-3c-2.2-1.4-3.8-3.3-6.2-4.2l-0.8,2.9
		c2.2,0.8,7.8,2.2,8.5,4.8l2.5-1.5c-2.4-2.7-4.9-5.3-7.5-7.8C32.5,117.3,30.4,119.4,31.8,120.7L31.8,120.7z"/>
	<path d="M46.9,131.3c1.5-0.2,3.1,0,4.5,0.7c0.8,0.2,1.6-0.2,1.8-1c0.2-0.8-0.2-1.6-1-1.8c-1.9-0.8-4-1-6.1-0.7
		c-0.8,0.2-1.2,1.1-1,1.8C45.4,131,46.2,131.5,46.9,131.3L46.9,131.3z"/>
	<path d="M49.8,131.8c3,0.7,6,1.3,9,1.8c1.9,0.3,2.7-2.6,0.8-2.9c-3-0.5-6-1.1-9-1.8C48.8,128.4,48,131.3,49.8,131.8z"/>
	<path d="M59,133.6c2,0.1,3.9,0.3,5.9,0.6c1.5,0.4,3,0.5,4.5,0.3c1.9-0.3,1.1-3.2-0.8-2.9c-1.5,0.2-3.5-0.5-5-0.7s-3.1-0.3-4.6-0.4
		C57,130.5,57,133.5,59,133.6L59,133.6z"/>
	<path d="M69.9,135.1c7.8-0.7,15.5-2.7,22.6-6c1.5-0.7,0.5-3.3-1.2-2.7c-1.5,0.4-2.7,1.4-3.5,2.7c-0.4,0.7-0.2,1.6,0.6,2.1
		c0.2,0.1,0.5,0.2,0.7,0.2c1.7,0.1,3.3-0.7,4.1-2.2c1.1-1.6-1.5-3.1-2.6-1.5l-1.5,0.7l1.3,2.3l1.7-1.3l-1.2-2.7
		c-6.6,3.1-13.8,4.9-21.1,5.5C68,132.2,68,135.2,69.9,135.1L69.9,135.1z"/>
	<path d="M92.5,130.5c1.9-0.7,3.4-0.5,5-1.7c2.3-1.6,4.8-3.2,7.2-4.9s5.9-3.6,7.9-5.6s3.1-4.1,5.7-5.5c1.7-0.9,0.2-3.5-1.5-2.6
		c-1.7,1-3.3,2.2-4.6,3.7c-2,2-4.2,3.8-6.5,5.5c-4.2,3.4-8.9,6.1-13.9,8.1C90,128.2,90.8,131.1,92.5,130.5L92.5,130.5z"/>
	<path d="M124.4,91.1c-0.6,4.9-2.8,9.5-6.2,13.1l2.4,1.8c1.3-2.5,2.7-4.9,4.3-7.2c1.4-1.7,2.5-3.7,3.2-5.9c0.2-0.8-0.3-1.6-1.1-1.8
		c-0.6-0.1-1.3,0.1-1.6,0.7c-3,5.2-7.5,9.1-10.6,14.1l2.6,1.5c1.6-2.6,2.6-5.5,3.1-8.5c0.3-1.9-2.6-2.7-2.9-0.8
		c-0.4,2.8-1.3,5.4-2.8,7.8c-1,1.7,1.6,3.2,2.6,1.5c1.8-2.5,3.7-4.9,5.8-7.1c1.8-2.2,3.4-4.5,4.8-7l-2.7-1.2c-0.6,2.3-2.2,4.1-3.5,6
		s-2.5,4.2-3.7,6.4c-0.8,1.4,1.2,3.2,2.4,1.8c3.9-4.4,6.1-8.5,7-14.4C127.6,90,124.7,89.2,124.4,91.1L124.4,91.1z"/>
</g>
</svg>
