<svg id="Layer_1" data-name="Layer 1" xmlns="http://www.w3.org/2000/svg" viewBox="0 0 138 138"><defs><style>.cls-1{fill:#16d316;}.cls-2{fill:none;stroke:#000;stroke-miterlimit:10;stroke-width:2px;}.cls-3{isolation:isolate;font-size:24px;font-family:NHL, NHL;}</style></defs><title>WebDesign</title><circle class="cls-1" cx="69" cy="69" r="68"/><circle class="cls-2" cx="69" cy="69" r="68"/><text class="cls-3" transform="translate(33.54 56.42)">HTML</text><text class="cls-3" transform="translate(43.29 75.42)">CSS</text><text class="cls-3" transform="translate(43.18 93.42)">JS</text><path d="M114,41c-4,5.91-8.17,11.76-12.32,17.6L89.15,76,76.43,93.35,70,102c-2.17,2.85-4.31,5.71-6.51,8.54,2-3,4.08-5.89,6.11-8.83l6.2-8.77L88.35,75.5l12.72-17.31C105.34,52.41,109.62,46.67,114,41Z"/><path d="M114,41c-7.29.21-14.58.3-21.87.38l-21.87.12-21.87-.11-10.94-.14L26.5,41l10.94-.25,10.94-.14,21.88-.11,21.88.12C99.42,40.7,106.71,40.79,114,41Z"/></svg>