<?xml version="1.0" encoding="utf-8"?>
<!-- Generator: Adobe Illustrator 21.0.0, SVG Export Plug-In . SVG Version: 6.00 Build 0)  -->
<svg version="1.1" id="Layer_1" xmlns="http://www.w3.org/2000/svg" xmlns:xlink="http://www.w3.org/1999/xlink" x="0px" y="0px"
	 viewBox="0 0 1024 768" style="enable-background:new 0 0 1024 768;" xml:space="preserve">
<style type="text/css">
	.st0{fill:#FFFFFF;}
	.st1{stroke:#FF0000;}
	.st2{fill:#FFFFFF;stroke:#FF0000;stroke-miterlimit:10;}
</style>
<g>
	<path d="M132.3,433.6c-0.3,0-0.6,0-0.8,0c-6.3-0.2-11.6-2.9-15.2-7.8c-9.8-13.5-4.4-41.6,10-92.1l3.4-12.1
		c9.5-33.3,13.4-47.1,16.3-63.9l0.1-0.3l0.1-0.3c0.5-1.8,2.6-7.7,10.8-7.7c0.3,0,26.4,0.5,34.3,11.4c2.6,3.6,3.3,8,1.9,12.1
		l-23,67.1c-4.1,12-8,22.5-11.3,31.7c-2.8,7.5-5.5,15.2-7.7,21.7c13.3-13.9,33.2-39.6,45.9-64.7c13.5-27.1,18.1-42,18.1-59.1
		c0-3.5,2.3-10.2,11.2-10.2c3.3,0,11.2,0.7,18.5,2.6c12.8,3.3,19.3,9.3,19.3,17.7c0,12.7-6.7,28-26.7,60.3l-0.5,0.9
		c-5.9,10.7-19.4,34.9-27.2,51.8c15-14,37-39.3,49.5-64.1c16.2-32.1,19.1-48.5,19.1-69.1c0-3.5,2.3-10.2,11.2-10.2
		c3.3,0,11.2,0.7,18.5,2.6c12.8,3.3,19.3,9.3,19.3,17.7c0,13.4-3.6,31.6-29.9,73.7c-18.4,29.4-43.6,51.9-57,62.7
		c-10.3,8.3-36,27.6-51.9,27.6c0,0,0,0,0,0c-0.2,0-0.4,0-0.6,0c-5.8-0.1-10.7-2.6-13.9-7c-2.2-3.1-3.6-6.8-3.9-11.5
		C157.7,424.5,143.1,433.6,132.3,433.6z"/>
	<path d="M301.7,433.6c-8.8,0-16.6-4.1-22.1-11.6c-9.3-12.6-11.2-33.3-4.8-54c11-36.2,41.3-71.7,61.1-71.7c4.2,0,8,1.5,10.9,4.3
		c0.4,0.3,1.3,1,2.1,1.5c6,4.3,18.4,13.2,16,26.3c-2.9,16-28,44.7-50.1,62.2c-1.1,6.4-1,10.2-0.8,12.3c6.6-2.1,20.7-11.4,28.8-26.9
		c2.8-5.4,5.9-11.5,13-11.5c3.7,0,10.6,2.5,10.6,12.2c0,3.7-1.5,8.2-4.3,13.2C349.7,411.3,323.8,433.6,301.7,433.6z"/>
	<path d="M357.5,432.8c-2.4,0-4.7-0.5-6.9-1.4c-16.4-6.9-13.9-28.7-12.8-38c1.8-15.6,6.9-38.2,16.5-72.5c-1.3,0-2.6,0-3.8,0
		c-16,0-30.2-2.5-42.2-7.3c-19.1-7.6-23.5-22.7-21.3-34.2c1.6-8.1,6.7-16.2,14.6-16.2c2,0,4,0.6,5.7,1.6
		c17.5,11,37.6,17.8,58.5,19.8c6.4-16.5,16.7-37.5,31.6-54.8c17-19.7,36.8-30.1,57.2-30.1c24.3,0,31.3,14.3,33.1,20.5
		c6.4,21.2-11.5,53.9-40,72.8c-11.9,7.9-26.8,14.7-43.5,19.6c-4,12.3-11.3,35-17.3,54.5c1.9-1.7,4.2-2.8,7.2-2.8
		c0.4,0,10.6,0.1,10.6,12.3c0,3.5-1.5,8.1-4.3,13c-5.9,10.3-13,22-20.3,30C372.3,428.5,364.9,432.8,357.5,432.8z M445.7,225.8
		c-2.6,0-8.2,2.3-16.2,18c-5,9.6-9.6,22-14,35c5.1-2,9.6-4.4,13.4-7.1c18.7-13.2,24.6-32.9,21.7-42.1
		C449.5,226.4,448,225.8,445.7,225.8z"/>
	<path d="M404.9,444.6c-8.4,0-16.1-4.1-21.7-11.7c-10.8-14.7-13.6-42-6.5-64.9c11.3-36.6,38.5-58.5,58.3-58.5
		c6.2,0,11.6,2.1,15.7,6.1c11.2,11.2,13.5,27,7,49.1c0.8-0.2,1.7-0.3,2.7-0.3c0.4,0,10,0.1,10.7,11.6l0,0.3v0.3
		c0,2.6-0.6,6.9-3.7,12.8C457.3,408.5,431.4,444.6,404.9,444.6z M419.1,379.5c-4.1,16.5-4.2,29.2-2.9,34.3
		c5.7-2.7,17.7-14.1,26.7-28.9c-0.3,0-0.7,0-1,0C438.6,384.9,427.4,383.8,419.1,379.5z"/>
	<path d="M468.7,433.6c-9.3,0-17.8-4.6-24-13c-9.8-13.3-12.2-33.3-6.4-52.3c7.1-23.1,21.2-42.2,38-51.8
		c7.4-11.4,18.2-17.9,30.1-17.9c8.7,0,16.2,3.9,21.6,11.3c7.7,10.6,10.1,27.1,8.9,43.1c1-0.3,2-0.5,3.1-0.5
		c0.4,0,10.6,0.1,10.6,12.3c0,2.9-0.8,7.5-4.6,13.4c-5.8,9.3-14.9,17.3-24.4,21.5C506,424.6,483.6,433.6,468.7,433.6z M478.8,387.9
		c-1.1,5.3-1.7,9.9-2,13.5c1.4-2.4,3-5.7,4.8-10.1C480.7,390.3,479.8,389.1,478.8,387.9z M494,344c-0.1,2.2-0.1,4.4,0.1,6.8
		c0.9-3.5,1.7-7,2.4-10.4c0,0,0,0,0-0.1C495.8,341.3,494.9,342.5,494,344z"/>
	<path d="M619.1,443.6c-3.2,0-6.2-0.7-8.9-2.2c-7-3.7-10.2-13.2-9.7-28.9c0.1-2.5,0.3-5.1,0.5-7.8c-1.3,4.1-2.7,8.4-4.1,13
		c-1,4.5-1.4,6.4-1.5,7.2v7.7l-8.3,1.5c-1.8,0.3-3.6,0.5-5.3,0.5c-7.5,0-13.9-3.2-18.1-8.9c-4.7-6.4-6.1-15.2-5.7-24.5
		c-1.5,4.7-3.1,9.7-4.8,15.1c-1,4.2-1.4,6.5-1.6,7.5l1.7,8.6l-10.1,1.7c-2.1,0.4-4.1,0.5-6.1,0.5c-10,0-15.8-4.7-18.9-8.6
		c-6.8-8.7-7.7-22.6-2.7-42.6c2.8-11.2,6.5-23.8,10.1-36.1c4.1-14,8-27.3,10.5-38.1l0-0.2c0.6-2.3,2.9-7.7,11.3-7.7
		c1,0,25.2,0.1,32.9,10.6c0.3,0.4,0.5,0.7,0.7,1.1c3.5-1.7,7.1-2.5,10.8-2.5c9.2,0,14.6,4.4,17.5,8.1c1.1,1.4,2.1,3,2.9,4.8
		c7.5-8.7,15.2-12.9,23.4-12.9c7.6,0,14.1,3.1,18.3,8.9c7.2,9.9,7.1,26.8-0.3,51.4c2.4-3.5,5.3-6.3,10-6.3c3.7,0,10.6,2.5,10.6,12.2
		c0,3.7-1.5,8.2-4.3,13.2c-5.6,9.9-17.6,29.5-27,40.2l-0.1,0.1C635,439,627,443.6,619.1,443.6z"/>
	<path d="M669.1,433.6c-8.8,0-16.6-4.1-22.1-11.6c-9.3-12.6-11.2-33.3-4.8-54c11-36.2,41.3-71.7,61.1-71.7c4.2,0,8,1.5,10.9,4.3
		c0.4,0.3,1.3,1,2.1,1.5c6,4.3,18.4,13.2,16,26.3c-2.9,16-28,44.7-50.1,62.2c-1.1,6.4-1,10.2-0.8,12.3c6.6-2.1,20.7-11.4,28.8-26.9
		c2.8-5.4,5.9-11.5,13-11.5c3.7,0,10.6,2.5,10.6,12.2c0,3.7-1.5,8.2-4.3,13.2C717.1,411.3,691.2,433.6,669.1,433.6z"/>
	<path class="st0" d="M718.9,380.6c-11.4,21.8-33.2,34.2-41.6,32.6c-6.8-1-7.6-12.2-4.4-28.2c23.4-17.6,47.2-46.2,49.4-58.4
		c1.6-8.8-12.4-16-15.2-18.8c-8.8-8.8-43.2,23.2-55.4,63.2c-3,9.8-3.9,19.6-2.8,28c-5.6,8.7-11.3,16.7-14,19.4
		c-5.6,5.6-2.2-14.8,7.8-45.4c10.4-31.8,9.4-52.6-6.8-52.6c-11.6,0-23,16.4-33.2,38.8c5.8-23.8,2.8-38.8-10.6-38.8
		c-12.2,0-24.2,17.8-34.6,41.6c8.6-28,14.8-38.8,15.6-41.2c2.6-8.4-26.8-10.2-27-9.4c-4.4,19.2-13.1,45.8-19,68.1
		c-2.9,2.6-6,4.8-9.2,6.5c2-4,3.6-8.4,5.2-13c8.2-26,5.2-64.4-16.6-64.4c-9.8,0-17.8,6.2-23,15.4c-13.2,6.6-28,22.6-35.6,47.2
		c-2.9,9.5-3.3,18.8-1.9,26.9c-11,15.3-25.1,27.7-33.1,26.1c-10.4-2-8.8-29.4-1.8-53.2c6.8-24.6,19.8-46.4,31-40.6
		c3.8,2-21.8,33.4-22.4,35c-1.8,6,18.2,10.2,23.8,9.4l0.2-0.2c13.2-32.8,6.8-45,0-51.8c-11.6-11.4-45,8.2-57.4,48.2
		c-2.2,7.1-3.3,15-3.4,22.7c-4,7-7.6,12.4-10,14.3c-5.2,4.2-7,3.8-4.8-9.4c2.2-13.4,20.6-70,27.6-91.6c0.2-0.8,0.4-1.6,0.8-2.4
		c17-4.6,33.2-11.4,45.8-19.8c36.6-24.4,54.8-75,12.4-75c-38.2,0-66.8,42.6-82,85.4c-18.6-0.8-38.2-5.3-56.7-14.1
		c0.9-4.4,1.3-8.1,1.3-11.5c0-8.8-29-11-29-10.2c0,23.6-4.2,41.8-20.2,73.6c-19.2,38-62.2,81.2-71.8,80.2c-9-1,6.8-32.4,32.2-78
		c0.2-0.2,0.2-0.4,0.4-0.6c19.4-31.4,25.2-45,25.2-55c0-8.8-29-11-29-10.2c0,20.4-6.2,37.6-19.2,63.6c-19.2,38-56.2,81.2-65.8,80.2
		c-9-1,3.6-27.4,20.6-76.6l23-67c2.8-8.4-27.6-11-27.8-10.2c-3.4,19.2-8,34.6-20,77c-15.2,53.6-21.6,86.6-4,87.2
		c9.6,0.4,30.6-13.2,52.2-34c-6.2,20.8-6.2,33.8,4,34c16.2,0.6,71.6-38.8,100.8-85.6c9-14.4,15.3-25.9,19.6-35.3
		c1.1,0.6,2.3,1.2,3.6,1.7c4.9,2,10.2,3.5,15.8,4.6c-14,7.9-34.7,32.8-43.6,62c-8.2,26.6-0.4,52.6,17.4,52.6
		c14.3,0,33.8-13.7,46.3-30.6c-2.3,18.4,0.2,26.6,6.5,29.2c4.8,2,11-1,18.4-9.2c3.4-3.7,6.8-8.4,10.1-13.6
		c1.1,18.8,8.5,35.2,21.9,35.2c14,0,30.2-15.4,42.2-31.8c3.5,12.3,11.6,20.8,21.6,20.8c14,0,33.4-9.8,46.2-32
		c3.6-1.2,7.2-3.2,10.6-5.7c-8.1,32.7,2.2,40.7,16.2,38.3c0,0-0.2-1,2-10.6c16.2-52.8,30-80,40-80c7,0-0.6,10.8-9.8,39.4
		c-10,31.4-7.6,54.6,11.6,51.2c0,0,0-0.8,1.8-9c16.4-53.8,30.4-81.6,40.4-81.6c7,0-0.8,10.8-9.8,39.4c-9.4,30-9.2,56.4-3,59.6
		c4.8,2.6,12,0.6,20.8-9.2c4.3-4.9,9.3-12.1,14.1-19.3c2.7,11.6,9.5,19.5,19.3,19.5c16.6,0,40-18.4,51.6-38.8c2.4-4.2,3-7,3-8.2
		C723.7,373,722.5,373.6,718.9,380.6z M676.5,371c6.6-23.4,20.8-60.4,29-56.2c6,3.2-9.2,41.8-31,63.2
		C675.1,375.8,675.7,373.4,676.5,371z M445.7,215.8c23.4,0,20.8,41.6-11,64c-9.2,6.6-21.2,11.2-34.6,13.6
		C413.3,252.4,426.3,215.8,445.7,215.8z M309.1,371c6.6-23.4,20.8-60.4,29-56.2c6,3.2-9.2,41.8-31,63.2
		C307.7,375.8,308.3,373.4,309.1,371z M349.2,384.6c-11.8,19.3-31.5,30.1-39.3,28.6c-6.8-1-7.6-12.2-4.4-28.2
		c23.4-17.6,47.2-46.2,49.4-58.4c1.2-6.5-6.2-12.2-11.3-15.8c7.9,0.4,16,0.1,24.3-0.8C358.2,343.4,352.1,367.5,349.2,384.6z
		 M472.1,418.2c-8.2,0-6.2-23.6,0.6-47c1.6-5.6,3.2-10.8,5-15.2c0,1.4,0.2,3,0.6,4.4c2,12,7.4,22.6,15.2,28.2
		C487.5,405.2,480.3,418.2,472.1,418.2z M498.5,373c-1,3.4-2,6.8-3.2,10c-4.8-5.4-8.8-14.4-10.4-25.2c-1-6-1.2-11.6-0.6-16.8
		c7-12.8,13.8-16.4,19.6-11.6c0.2,0.2,4-3,0.4-6.2c-3-2.6-7.6-3.4-12.8-2.2c3-3.8,6.8-6.2,10.8-6.2
		C514.9,314.8,504.9,350.2,498.5,373z"/>
</g>
<g>
	<path class="st1" d="M367.5,452.8c-2.4,0-4.7-0.5-6.9-1.4c-16.4-6.9-13.9-28.7-12.8-38c1.8-15.6,6.9-38.2,16.5-72.5
		c-1.3,0-2.6,0-3.8,0c-16,0-30.2-2.5-42.2-7.3c-19.1-7.6-23.5-22.7-21.3-34.2c1.6-8.1,6.7-16.2,14.6-16.2c2,0,4,0.6,5.7,1.6
		c17.5,11,37.6,17.8,58.5,19.8c6.4-16.5,16.7-37.5,31.6-54.8c17-19.7,36.8-30.1,57.2-30.1c24.3,0,31.3,14.3,33.1,20.5
		c6.4,21.2-11.5,53.9-40,72.8c-11.9,7.9-26.8,14.7-43.5,19.6c-4,12.3-11.3,35-17.3,54.5c1.9-1.7,4.2-2.8,7.2-2.8
		c0.4,0,10.6,0.1,10.6,12.3c0,3.5-1.5,8.1-4.3,13c-5.9,10.3-13,22-20.3,30C382.3,448.5,374.9,452.8,367.5,452.8z M455.7,245.8
		c-2.6,0-8.2,2.3-16.2,18c-5,9.6-9.6,22-14,35c5.1-2,9.6-4.4,13.4-7.1c18.7-13.2,24.6-32.9,21.7-42.1
		C459.5,246.4,458,245.8,455.7,245.8z"/>
	<g>
		<path class="st1" d="M365.7,384.4c-7.1,0-10.3,6.2-13,11.5c-8.1,15.6-22.2,24.9-28.8,26.9c-0.2-2.1-0.2-5.9,0.8-12.3
			c22.1-17.5,47.2-46.2,50.1-62.2c2.4-13.1-10-22-16-26.3c-0.7-0.5-1.7-1.2-2.1-1.5c-2.9-2.8-6.6-4.3-10.9-4.3
			c-4.9,0-10.5,2.2-16.3,6.1c6.5-15.2,7.8-24.9,7.8-32.8c0-8.4-6.5-14.4-19.3-17.7c-7.3-1.9-15.2-2.6-18.5-2.6
			c-8.9,0-11.2,6.6-11.2,10.2c0,20.6-3,37-19.1,69.1c-12.5,24.8-34.5,50.1-49.5,64.1c7.8-17,21.2-41.2,27.2-51.8l0.5-0.9
			c20-32.3,26.7-47.5,26.7-60.3c0-8.4-6.5-14.4-19.3-17.7c-7.3-1.9-15.2-2.6-18.5-2.6c-8.9,0-11.2,6.6-11.2,10.2
			c0,17.1-4.6,32-18.1,59.1c-12.7,25.1-32.5,50.9-45.9,64.7c2.2-6.5,5-14.1,7.7-21.7c3.4-9.3,7.2-19.8,11.3-31.7l23-67.1
			c1.4-4.1,0.7-8.5-1.9-12.1c-7.9-10.9-34-11.4-34.3-11.4c-8.3,0-10.4,5.9-10.8,7.7l-0.1,0.3l-0.1,0.3c-3,16.7-6.9,30.5-16.3,63.9
			l-3.4,12.1c-14.3,50.5-19.8,78.6-10,92.1c3.6,4.9,8.9,7.6,15.2,7.8c0.3,0,0.6,0,0.8,0c10.8,0,25.4-9.1,37.6-18.5
			c0.4,4.7,1.7,8.5,3.9,11.5c3.2,4.4,8.1,6.9,13.9,7c0.2,0,0.4,0,0.6,0c0,0,0,0,0,0c15.8,0,41.5-19.3,51.9-27.6
			c8-6.4,20.1-16.9,32.5-30.6c-3.9,18.1-1.5,35.5,6.7,46.6c5.5,7.5,13.4,11.6,22.1,11.6c22.1,0,48-22.3,60.3-43.8
			c2.8-4.9,4.3-9.5,4.3-13.2C376.3,387,369.3,384.4,365.7,384.4z"/>
		<path class="st1" d="M733.1,384.4c-7.1,0-10.3,6.2-13,11.5c-8.1,15.6-22.2,24.9-28.8,26.9c-0.2-2.1-0.2-5.9,0.8-12.3
			c22.1-17.5,47.2-46.2,50.1-62.2c2.4-13.1-10-22-16-26.3c-0.7-0.5-1.7-1.2-2.1-1.5c-2.9-2.8-6.6-4.3-10.9-4.3
			c-13,0-30.5,15.4-44.2,36.2c-0.7-5.3-2.3-9.7-4.9-13.2c-4.1-5.7-10.6-8.9-18.3-8.9c-8.1,0-15.8,4.2-23.4,12.9
			c-0.8-1.7-1.8-3.3-2.9-4.8c-2.9-3.7-8.3-8.1-17.5-8.1c-3.7,0-7.3,0.8-10.8,2.5c-0.2-0.4-0.5-0.8-0.7-1.1
			c-7.7-10.5-31.9-10.6-32.9-10.6c-8.5,0-10.7,5.4-11.3,7.7l0,0.2c-0.8,3.5-1.8,7.3-2.8,11.3c-1.4-3.9-3.2-7.5-5.4-10.6
			c-5.4-7.4-12.9-11.3-21.6-11.3c-11.9,0-22.8,6.5-30.1,17.9c-6,3.4-11.7,8.1-16.8,13.7c-1.7-5.5-4.7-10.4-8.8-14.5
			c-4-4-9.5-6.1-15.7-6.1c-19.7,0-46.9,21.9-58.3,58.5c-7.1,22.9-4.3,50.2,6.5,64.9c5.5,7.5,13.2,11.7,21.7,11.7
			c14.4,0,28.6-10.7,40.2-23.4c6.2,8,14.5,12.4,23.6,12.4c12.3,0,29.7-6.1,44.2-22.3c0.7,5.9,2.5,10.8,5.5,14.6
			c3.1,3.9,8.8,8.6,18.9,8.6c1.9,0,4-0.2,6.1-0.5l10.1-1.7l-1.7-8.6c0.2-1.1,0.6-3.3,1.6-7.5c1.7-5.4,3.3-10.5,4.8-15.1
			c-0.4,9.4,1,18.1,5.7,24.5c4.2,5.8,10.6,8.9,18.1,8.9c1.7,0,3.5-0.2,5.3-0.5l8.3-1.5v-7.7c0.1-0.8,0.5-2.7,1.5-7.2
			c1.4-4.6,2.8-8.9,4.1-13c-0.3,2.7-0.4,5.3-0.5,7.8c-0.5,15.8,2.6,25.2,9.7,28.9c2.7,1.5,5.7,2.2,8.9,2.2c7.9,0,16-4.6,24-13.6
			l0.1-0.1c1.6-1.9,3.3-4,5.1-6.3c5.4,6.4,12.7,9.9,20.8,9.9c22.1,0,48-22.3,60.3-43.8c2.8-4.9,4.3-9.5,4.3-13.2
			C743.7,387,736.7,384.4,733.1,384.4z M426.2,433.7c-1.3-5.1-1.2-17.8,2.9-34.3c5.1,2.7,11.4,4.1,16.2,4.8
			c-0.3,3.8-0.2,7.5,0.2,11.1C438.1,424.9,430.4,431.7,426.2,433.7z M486.9,421.4c0.3-3.7,0.9-8.2,2-13.5c0.9,1.2,1.9,2.4,2.8,3.5
			C489.9,415.7,488.3,419,486.9,421.4z M506.5,360.4c-0.7,3.3-1.5,6.9-2.4,10.4c-0.2-2.4-0.2-4.6-0.1-6.8
			C504.9,362.5,505.8,361.3,506.5,360.4C506.5,360.4,506.5,360.4,506.5,360.4z"/>
	</g>
	<path class="st1" d="M357.5,432.8c-2.4,0-4.7-0.5-6.9-1.4c-16.4-6.9-13.9-28.7-12.8-38c1.8-15.6,6.9-38.2,16.5-72.5
		c-1.3,0-2.6,0-3.8,0c-16,0-30.2-2.5-42.2-7.3c-19.1-7.6-23.5-22.7-21.3-34.2c1.6-8.1,6.7-16.2,14.6-16.2c2,0,4,0.6,5.7,1.6
		c17.5,11,37.6,17.8,58.5,19.8c6.4-16.5,16.7-37.5,31.6-54.8c17-19.7,36.8-30.1,57.2-30.1c24.3,0,31.3,14.3,33.1,20.5
		c6.4,21.2-11.5,53.9-40,72.8c-11.9,7.9-26.8,14.7-43.5,19.6c-4,12.3-11.3,35-17.3,54.5c1.9-1.7,4.2-2.8,7.2-2.8
		c0.4,0,10.6,0.1,10.6,12.3c0,3.5-1.5,8.1-4.3,13c-5.9,10.3-13,22-20.3,30C372.3,428.5,364.9,432.8,357.5,432.8z M445.7,225.8
		c-2.6,0-8.2,2.3-16.2,18c-5,9.6-9.6,22-14,35c5.1-2,9.6-4.4,13.4-7.1c18.7-13.2,24.6-32.9,21.7-42.1
		C449.5,226.4,448,225.8,445.7,225.8z"/>
	<g>
		<path class="st1" d="M355.7,364.4c-7.1,0-10.3,6.2-13,11.5c-8.1,15.6-22.2,24.9-28.8,26.9c-0.2-2.1-0.2-5.9,0.8-12.3
			c22.1-17.5,47.2-46.2,50.1-62.2c2.4-13.1-10-22-16-26.3c-0.7-0.5-1.7-1.2-2.1-1.5c-2.9-2.8-6.6-4.3-10.9-4.3
			c-4.9,0-10.5,2.2-16.3,6.1c6.5-15.2,7.8-24.9,7.8-32.8c0-8.4-6.5-14.4-19.3-17.7c-7.3-1.9-15.2-2.6-18.5-2.6
			c-8.9,0-11.2,6.6-11.2,10.2c0,20.6-3,37-19.1,69.1c-12.5,24.8-34.5,50.1-49.5,64.1c7.8-17,21.2-41.2,27.2-51.8l0.5-0.9
			c20-32.3,26.7-47.5,26.7-60.3c0-8.4-6.5-14.4-19.3-17.7c-7.3-1.9-15.2-2.6-18.5-2.6c-8.9,0-11.2,6.6-11.2,10.2
			c0,17.1-4.6,32-18.1,59.1c-12.7,25.1-32.5,50.9-45.9,64.7c2.2-6.5,5-14.1,7.7-21.7c3.4-9.3,7.2-19.8,11.3-31.7l23-67.1
			c1.4-4.1,0.7-8.5-1.9-12.1c-7.9-10.9-34-11.4-34.3-11.4c-8.3,0-10.4,5.9-10.8,7.7l-0.1,0.3l-0.1,0.3c-3,16.7-6.9,30.5-16.3,63.9
			l-3.4,12.1c-14.3,50.5-19.8,78.6-10,92.1c3.6,4.9,8.9,7.6,15.2,7.8c0.3,0,0.6,0,0.8,0c10.8,0,25.4-9.1,37.6-18.5
			c0.4,4.7,1.7,8.5,3.9,11.5c3.2,4.4,8.1,6.9,13.9,7c0.2,0,0.4,0,0.6,0c0,0,0,0,0,0c15.8,0,41.5-19.3,51.9-27.6
			c8-6.4,20.1-16.9,32.5-30.6c-3.9,18.1-1.5,35.5,6.7,46.6c5.5,7.5,13.4,11.6,22.1,11.6c22.1,0,48-22.3,60.3-43.8
			c2.8-4.9,4.3-9.5,4.3-13.2C366.3,367,359.3,364.4,355.7,364.4z"/>
		<path class="st1" d="M723.1,364.4c-7.1,0-10.3,6.2-13,11.5c-8.1,15.6-22.2,24.9-28.8,26.9c-0.2-2.1-0.2-5.9,0.8-12.3
			c22.1-17.5,47.2-46.2,50.1-62.2c2.4-13.1-10-22-16-26.3c-0.7-0.5-1.7-1.2-2.1-1.5c-2.9-2.8-6.6-4.3-10.9-4.3
			c-13,0-30.5,15.4-44.2,36.2c-0.7-5.3-2.3-9.7-4.9-13.2c-4.1-5.7-10.6-8.9-18.3-8.9c-8.1,0-15.8,4.2-23.4,12.9
			c-0.8-1.7-1.8-3.3-2.9-4.8c-2.9-3.7-8.3-8.1-17.5-8.1c-3.7,0-7.3,0.8-10.8,2.5c-0.2-0.4-0.5-0.8-0.7-1.1
			c-7.7-10.5-31.9-10.6-32.9-10.6c-8.5,0-10.7,5.4-11.3,7.7l0,0.2c-0.8,3.5-1.8,7.3-2.8,11.3c-1.4-3.9-3.2-7.5-5.4-10.6
			c-5.4-7.4-12.9-11.3-21.6-11.3c-11.9,0-22.8,6.5-30.1,17.9c-6,3.4-11.7,8.1-16.8,13.7c-1.7-5.5-4.7-10.4-8.8-14.5
			c-4-4-9.5-6.1-15.7-6.1c-19.7,0-46.9,21.9-58.3,58.5c-7.1,22.9-4.3,50.2,6.5,64.9c5.5,7.5,13.2,11.7,21.7,11.7
			c14.4,0,28.6-10.7,40.2-23.4c6.2,8,14.5,12.4,23.6,12.4c12.3,0,29.7-6.1,44.2-22.3c0.7,5.9,2.5,10.8,5.5,14.6
			c3.1,3.9,8.8,8.6,18.9,8.6c1.9,0,4-0.2,6.1-0.5l10.1-1.7l-1.7-8.6c0.2-1.1,0.6-3.3,1.6-7.5c1.7-5.4,3.3-10.5,4.8-15.1
			c-0.4,9.4,1,18.1,5.7,24.5c4.2,5.8,10.6,8.9,18.1,8.9c1.7,0,3.5-0.2,5.3-0.5l8.3-1.5v-7.7c0.1-0.8,0.5-2.7,1.5-7.2
			c1.4-4.6,2.8-8.9,4.1-13c-0.3,2.7-0.4,5.3-0.5,7.8c-0.5,15.8,2.6,25.2,9.7,28.9c2.7,1.5,5.7,2.2,8.9,2.2c7.9,0,16-4.6,24-13.6
			l0.1-0.1c1.6-1.9,3.3-4,5.1-6.3c5.4,6.4,12.7,9.9,20.8,9.9c22.1,0,48-22.3,60.3-43.8c2.8-4.9,4.3-9.5,4.3-13.2
			C733.7,367,726.7,364.4,723.1,364.4z M416.2,413.7c-1.3-5.1-1.2-17.8,2.9-34.3c5.1,2.7,11.4,4.1,16.2,4.8
			c-0.3,3.8-0.2,7.5,0.2,11.1C428.1,404.9,420.4,411.7,416.2,413.7z M476.9,401.4c0.3-3.7,0.9-8.2,2-13.5c0.9,1.2,1.9,2.4,2.8,3.5
			C479.9,395.7,478.3,399,476.9,401.4z M496.5,340.4c-0.7,3.3-1.5,6.9-2.4,10.4c-0.2-2.4-0.2-4.6-0.1-6.8
			C494.9,342.5,495.8,341.3,496.5,340.4C496.5,340.4,496.5,340.4,496.5,340.4z"/>
	</g>
	<path class="st2" d="M718.9,380.6c-11.4,21.8-33.2,34.2-41.6,32.6c-6.8-1-7.6-12.2-4.4-28.2c23.4-17.6,47.2-46.2,49.4-58.4
		c1.6-8.8-12.4-16-15.2-18.8c-8.8-8.8-43.2,23.2-55.4,63.2c-3,9.8-3.9,19.6-2.8,28c-5.6,8.7-11.3,16.7-14,19.4
		c-5.6,5.6-2.2-14.8,7.8-45.4c10.4-31.8,9.4-52.6-6.8-52.6c-11.6,0-23,16.4-33.2,38.8c5.8-23.8,2.8-38.8-10.6-38.8
		c-12.2,0-24.2,17.8-34.6,41.6c8.6-28,14.8-38.8,15.6-41.2c2.6-8.4-26.8-10.2-27-9.4c-4.4,19.2-13.1,45.8-19,68.1
		c-2.9,2.6-6,4.8-9.2,6.5c2-4,3.6-8.4,5.2-13c8.2-26,5.2-64.4-16.6-64.4c-9.8,0-17.8,6.2-23,15.4c-13.2,6.6-28,22.6-35.6,47.2
		c-2.9,9.5-3.3,18.8-1.9,26.9c-11,15.3-25.1,27.7-33.1,26.1c-10.4-2-8.8-29.4-1.8-53.2c6.8-24.6,19.8-46.4,31-40.6
		c3.8,2-21.8,33.4-22.4,35c-1.8,6,18.2,10.2,23.8,9.4l0.2-0.2c13.2-32.8,6.8-45,0-51.8c-11.6-11.4-45,8.2-57.4,48.2
		c-2.2,7.1-3.3,15-3.4,22.7c-4,7-7.6,12.4-10,14.3c-5.2,4.2-7,3.8-4.8-9.4c2.2-13.4,20.6-70,27.6-91.6c0.2-0.8,0.4-1.6,0.8-2.4
		c17-4.6,33.2-11.4,45.8-19.8c36.6-24.4,54.8-75,12.4-75c-38.2,0-66.8,42.6-82,85.4c-18.6-0.8-38.2-5.3-56.7-14.1
		c0.9-4.4,1.3-8.1,1.3-11.5c0-8.8-29-11-29-10.2c0,23.6-4.2,41.8-20.2,73.6c-19.2,38-62.2,81.2-71.8,80.2c-9-1,6.8-32.4,32.2-78
		c0.2-0.2,0.2-0.4,0.4-0.6c19.4-31.4,25.2-45,25.2-55c0-8.8-29-11-29-10.2c0,20.4-6.2,37.6-19.2,63.6c-19.2,38-56.2,81.2-65.8,80.2
		c-9-1,3.6-27.4,20.6-76.6l23-67c2.8-8.4-27.6-11-27.8-10.2c-3.4,19.2-8,34.6-20,77c-15.2,53.6-21.6,86.6-4,87.2
		c9.6,0.4,30.6-13.2,52.2-34c-6.2,20.8-6.2,33.8,4,34c16.2,0.6,71.6-38.8,100.8-85.6c9-14.4,15.3-25.9,19.6-35.3
		c1.1,0.6,2.3,1.2,3.6,1.7c4.9,2,10.2,3.5,15.8,4.6c-14,7.9-34.7,32.8-43.6,62c-8.2,26.6-0.4,52.6,17.4,52.6
		c14.3,0,33.8-13.7,46.3-30.6c-2.3,18.4,0.2,26.6,6.5,29.2c4.8,2,11-1,18.4-9.2c3.4-3.7,6.8-8.4,10.1-13.6
		c1.1,18.8,8.5,35.2,21.9,35.2c14,0,30.2-15.4,42.2-31.8c3.5,12.3,11.6,20.8,21.6,20.8c14,0,33.4-9.8,46.2-32
		c3.6-1.2,7.2-3.2,10.6-5.7c-8.1,32.7,2.2,40.7,16.2,38.3c0,0-0.2-1,2-10.6c16.2-52.8,30-80,40-80c7,0-0.6,10.8-9.8,39.4
		c-10,31.4-7.6,54.6,11.6,51.2c0,0,0-0.8,1.8-9c16.4-53.8,30.4-81.6,40.4-81.6c7,0-0.8,10.8-9.8,39.4c-9.4,30-9.2,56.4-3,59.6
		c4.8,2.6,12,0.6,20.8-9.2c4.3-4.9,9.3-12.1,14.1-19.3c2.7,11.6,9.5,19.5,19.3,19.5c16.6,0,40-18.4,51.6-38.8c2.4-4.2,3-7,3-8.2
		C723.7,373,722.5,373.6,718.9,380.6z M676.5,371c6.6-23.4,20.8-60.4,29-56.2c6,3.2-9.2,41.8-31,63.2
		C675.1,375.8,675.7,373.4,676.5,371z M445.7,215.8c23.4,0,20.8,41.6-11,64c-9.2,6.6-21.2,11.2-34.6,13.6
		C413.3,252.4,426.3,215.8,445.7,215.8z M309.1,371c6.6-23.4,20.8-60.4,29-56.2c6,3.2-9.2,41.8-31,63.2
		C307.7,375.8,308.3,373.4,309.1,371z M349.2,384.6c-11.8,19.3-31.5,30.1-39.3,28.6c-6.8-1-7.6-12.2-4.4-28.2
		c23.4-17.6,47.2-46.2,49.4-58.4c1.2-6.5-6.2-12.2-11.3-15.8c7.9,0.4,16,0.1,24.3-0.8C358.2,343.4,352.1,367.5,349.2,384.6z
		 M472.1,418.2c-8.2,0-6.2-23.6,0.6-47c1.6-5.6,3.2-10.8,5-15.2c0,1.4,0.2,3,0.6,4.4c2,12,7.4,22.6,15.2,28.2
		C487.5,405.2,480.3,418.2,472.1,418.2z M498.5,373c-1,3.4-2,6.8-3.2,10c-4.8-5.4-8.8-14.4-10.4-25.2c-1-6-1.2-11.6-0.6-16.8
		c7-12.8,13.8-16.4,19.6-11.6c0.2,0.2,4-3,0.4-6.2c-3-2.6-7.6-3.4-12.8-2.2c3-3.8,6.8-6.2,10.8-6.2
		C514.9,314.8,504.9,350.2,498.5,373z"/>
</g>
</svg>
